<mxfile host="65bd71144e">
    <diagram id="kHqZTXkkWNNfopyD9aV-" name="Page-1">
        <mxGraphModel dx="1970" dy="1750" grid="1" gridSize="10" guides="1" tooltips="1" connect="1" arrows="1" fold="1" page="1" pageScale="1" pageWidth="827" pageHeight="1169" background="#ffffff" math="0" shadow="1">
            <root>
                <mxCell id="0"/>
                <mxCell id="1" parent="0"/>
                <mxCell id="22" style="edgeStyle=orthogonalEdgeStyle;rounded=0;orthogonalLoop=1;jettySize=auto;html=1;exitX=0.5;exitY=1;exitDx=0;exitDy=0;strokeWidth=2;fillColor=#dae8fc;strokeColor=#6c8ebf;" edge="1" parent="1" source="5" target="21">
                    <mxGeometry relative="1" as="geometry"/>
                </mxCell>
                <mxCell id="5" value="manager" style="html=1;whiteSpace=wrap;container=1;recursiveResize=0;collapsible=0;fillColor=#f5f5f5;strokeColor=#666666;fontColor=#333333;" vertex="1" parent="1">
                    <mxGeometry x="-710" y="-570" width="160" height="70" as="geometry"/>
                </mxCell>
                <mxCell id="6" value="" style="triangle;html=1;whiteSpace=wrap;" vertex="1" parent="5">
                    <mxGeometry x="20" y="20" width="20" height="30" as="geometry"/>
                </mxCell>
                <mxCell id="7" style="edgeStyle=orthogonalEdgeStyle;rounded=0;orthogonalLoop=1;jettySize=auto;html=1;exitX=0.5;exitY=1;exitDx=0;exitDy=0;" edge="1" parent="1" source="5" target="5">
                    <mxGeometry relative="1" as="geometry"/>
                </mxCell>
                <mxCell id="46" style="edgeStyle=orthogonalEdgeStyle;rounded=0;orthogonalLoop=1;jettySize=auto;html=1;exitX=1;exitY=0.5;exitDx=0;exitDy=0;entryX=0;entryY=0.5;entryDx=0;entryDy=0;strokeWidth=2;fillColor=#008a00;strokeColor=#005700;" edge="1" parent="1" source="21" target="41">
                    <mxGeometry relative="1" as="geometry"/>
                </mxCell>
                <mxCell id="21" value="coroutine&lt;br&gt;pool" style="shape=ext;double=1;rounded=0;whiteSpace=wrap;html=1;fillColor=#f5f5f5;strokeColor=#666666;fontColor=#333333;" vertex="1" parent="1">
                    <mxGeometry x="-650" y="-420" width="120" height="80" as="geometry"/>
                </mxCell>
                <mxCell id="28" value="" style="shape=table;html=1;whiteSpace=wrap;startSize=0;container=1;collapsible=0;childLayout=tableLayout;fillColor=#dae8fc;strokeColor=#6c8ebf;" vertex="1" parent="1">
                    <mxGeometry x="-390" y="-660" width="180" height="120" as="geometry"/>
                </mxCell>
                <mxCell id="29" value="" style="shape=partialRectangle;html=1;whiteSpace=wrap;collapsible=0;dropTarget=0;pointerEvents=0;fillColor=none;top=0;left=0;bottom=0;right=0;points=[[0,0.5],[1,0.5]];portConstraint=eastwest;" vertex="1" parent="28">
                    <mxGeometry width="180" height="40" as="geometry"/>
                </mxCell>
                <mxCell id="30" value="E1" style="shape=partialRectangle;html=1;whiteSpace=wrap;connectable=0;top=0;left=0;bottom=0;right=0;overflow=hidden;" vertex="1" parent="29">
                    <mxGeometry width="60" height="40" as="geometry"/>
                </mxCell>
                <mxCell id="31" value="E2" style="shape=partialRectangle;html=1;whiteSpace=wrap;connectable=0;fillColor=#60a917;top=0;left=0;bottom=0;right=0;overflow=hidden;strokeColor=#2D7600;fontColor=#ffffff;" vertex="1" parent="29">
                    <mxGeometry x="60" width="60" height="40" as="geometry"/>
                </mxCell>
                <mxCell id="32" value="E3" style="shape=partialRectangle;html=1;whiteSpace=wrap;connectable=0;fillColor=#0050ef;top=0;left=0;bottom=0;right=0;overflow=hidden;strokeColor=#001DBC;fontColor=#ffffff;" vertex="1" parent="29">
                    <mxGeometry x="120" width="60" height="40" as="geometry"/>
                </mxCell>
                <mxCell id="33" value="" style="shape=partialRectangle;html=1;whiteSpace=wrap;collapsible=0;dropTarget=0;pointerEvents=0;fillColor=none;top=0;left=0;bottom=0;right=0;points=[[0,0.5],[1,0.5]];portConstraint=eastwest;" vertex="1" parent="28">
                    <mxGeometry y="40" width="180" height="40" as="geometry"/>
                </mxCell>
                <mxCell id="34" value="E4" style="shape=partialRectangle;html=1;whiteSpace=wrap;connectable=0;fillColor=#6a00ff;top=0;left=0;bottom=0;right=0;overflow=hidden;strokeColor=#3700CC;fontColor=#ffffff;" vertex="1" parent="33">
                    <mxGeometry width="60" height="40" as="geometry"/>
                </mxCell>
                <mxCell id="35" value="E5" style="shape=partialRectangle;html=1;whiteSpace=wrap;connectable=0;fillColor=#647687;top=0;left=0;bottom=0;right=0;overflow=hidden;strokeColor=#314354;fontColor=#ffffff;" vertex="1" parent="33">
                    <mxGeometry x="60" width="60" height="40" as="geometry"/>
                </mxCell>
                <mxCell id="36" value="E6" style="shape=partialRectangle;html=1;whiteSpace=wrap;connectable=0;fillColor=#a0522d;top=0;left=0;bottom=0;right=0;overflow=hidden;strokeColor=#6D1F00;fontColor=#ffffff;" vertex="1" parent="33">
                    <mxGeometry x="120" width="60" height="40" as="geometry"/>
                </mxCell>
                <mxCell id="37" value="" style="shape=partialRectangle;html=1;whiteSpace=wrap;collapsible=0;dropTarget=0;pointerEvents=0;fillColor=none;top=0;left=0;bottom=0;right=0;points=[[0,0.5],[1,0.5]];portConstraint=eastwest;" vertex="1" parent="28">
                    <mxGeometry y="80" width="180" height="40" as="geometry"/>
                </mxCell>
                <mxCell id="38" value="E7" style="shape=partialRectangle;html=1;whiteSpace=wrap;connectable=0;fillColor=#e3c800;top=0;left=0;bottom=0;right=0;overflow=hidden;strokeColor=#B09500;fontColor=#000000;" vertex="1" parent="37">
                    <mxGeometry width="60" height="40" as="geometry"/>
                </mxCell>
                <mxCell id="39" value="E8" style="shape=partialRectangle;html=1;whiteSpace=wrap;connectable=0;fillColor=#76608a;top=0;left=0;bottom=0;right=0;overflow=hidden;strokeColor=#432D57;fontColor=#ffffff;" vertex="1" parent="37">
                    <mxGeometry x="60" width="60" height="40" as="geometry"/>
                </mxCell>
                <mxCell id="40" value="E9" style="shape=partialRectangle;html=1;whiteSpace=wrap;connectable=0;fillColor=#a20025;top=0;left=0;bottom=0;right=0;overflow=hidden;strokeColor=#6F0000;fontColor=#ffffff;" vertex="1" parent="37">
                    <mxGeometry x="120" width="60" height="40" as="geometry"/>
                </mxCell>
                <mxCell id="41" value="actor" style="icon;html=1;image=img/clipart/Gear_128x128.png" vertex="1" parent="1">
                    <mxGeometry x="-330" y="-400" width="130" height="100" as="geometry"/>
                </mxCell>
                <mxCell id="47" value="" style="curved=1;endArrow=classic;html=1;strokeWidth=2;entryX=0.5;entryY=0;entryDx=0;entryDy=0;exitX=0.25;exitY=1.025;exitDx=0;exitDy=0;exitPerimeter=0;fillColor=#a20025;strokeColor=#6F0000;" edge="1" parent="1" source="37" target="41">
                    <mxGeometry width="50" height="50" relative="1" as="geometry">
                        <mxPoint x="-440" y="-330" as="sourcePoint"/>
                        <mxPoint x="-390" y="-380" as="targetPoint"/>
                        <Array as="points">
                            <mxPoint x="-345" y="-470"/>
                            <mxPoint x="-260" y="-440"/>
                        </Array>
                    </mxGeometry>
                </mxCell>
            </root>
        </mxGraphModel>
    </diagram>
</mxfile>